<svg xmlns="http://www.w3.org/2000/svg" xmlns:xlink="http://www.w3.org/1999/xlink" width="68" height="25.142" viewBox="0 0 68 25.142">
  <defs>
    <clipPath id="clip-path">
      <path id="path" d="M11.112-24.748v10.334L3.769-24.748H.506V-5.713H4.857V-16.046L12.2-5.713h3.263V-24.748Zm8.529,4.242a2.472,2.472,0,0,0,2.447-2.447A2.472,2.472,0,0,0,19.641-25.4a2.472,2.472,0,0,0-2.447,2.447,2.472,2.472,0,0,0,2.447,2.447ZM17.6-5.713H21.68v-13.6H17.6ZM31.814-19.69a5.107,5.107,0,0,0-4.052,1.659V-19.31H23.683V-.274h4.079V-6.991a5.107,5.107,0,0,0,4.052,1.659c3.562,0,6.5-3.127,6.5-7.179s-2.937-7.179-6.5-7.179ZM31-9.193a3.105,3.105,0,0,1-3.236-3.318A3.105,3.105,0,0,1,31-15.829a3.105,3.105,0,0,1,3.236,3.318A3.105,3.105,0,0,1,31-9.193Zm16.769-10.5a5.107,5.107,0,0,0-4.052,1.659V-19.31H39.636V-.274h4.079V-6.991a5.107,5.107,0,0,0,4.052,1.659c3.562,0,6.5-3.127,6.5-7.179s-2.937-7.179-6.5-7.179Zm-.816,10.5a3.105,3.105,0,0,1-3.236-3.318,3.105,3.105,0,0,1,3.236-3.318c1.876,0,3.236,3.318,3.236,3.318L46.951-9.193Zm17.2-10.116L61.6-10.988,58.58-19.31H54.093L59.5-6.338c-.6,1.659-1.5,2.257-3.4,2.257V-.274c3.807.19,6.227-1.523,7.75-5.847l4.65-13.189Z" transform="translate(-0.506 25.401)" fill="none" clip-rule="evenodd"/>
    </clipPath>
    <clipPath id="clip-path-2">
      <path id="path-2" data-name="path" d="M-135,3788H1305V-55H-135Z" transform="translate(135 55)" fill="none"/>
    </clipPath>
  </defs>
  <g id="group" transform="translate(0 0)">
    <g id="group-2" data-name="group" clip-path="url(#clip-path)">
      <g id="group-3" data-name="group" transform="translate(-135.506 -29.599)" clip-path="url(#clip-path-2)">
        <path id="path-3" data-name="path" d="M-4.494-30.4h78V4.74h-78Z" transform="translate(135 55)" fill="#1d1d1d"/>
      </g>
    </g>
  </g>
</svg>
